<?xml version="1.0" encoding="utf-8"?>
<!-- Generator: Adobe Illustrator 21.0.0, SVG Export Plug-In . SVG Version: 6.00 Build 0)  -->
<svg version="1.1" id="Layer_1" xmlns="http://www.w3.org/2000/svg" xmlns:xlink="http://www.w3.org/1999/xlink" x="0px" y="0px"
	 width="2800px" height="2000px" viewBox="0 0 2800 2000" style="enable-background:new 0 0 2800 2000;" xml:space="preserve">
<style type="text/css">
	.st0{fill:#E1ECF4;}
	.st1{fill:#A7C5D8;}
	.st2{fill:#506A7C;}
	.st3{fill:#678393;}
	.st4{fill:#405260;}
	.st5{fill:#374854;}
	.st6{fill:#768591;}
	.st7{fill:#F2F5F7;}
	.st8{fill:#C64F4F;}
	.st9{fill:#ED7070;}
	.st10{fill:#889AB5;}
	.st11{fill:#AF4545;}
	.st12{fill:#2E3E49;}
	.st13{fill:#AABAD1;}
	.st14{fill:#F4D076;}
	.st15{fill:#B24444;}
	.st16{fill:#F48C8C;}
	.st17{fill:#D15959;}
	.st18{fill:#9AE080;}
	.st19{fill:#6BB74F;}
	.st20{fill:#2C3947;}
	.st21{fill:#4D9130;}
	.st22{fill:#6396D3;}
	.st23{fill:#FFBDBC;}
	.st24{fill:#FFFFFF;}
	.st25{fill:#7CBAED;}
	.st26{fill:#D65B5B;}
	.st27{fill:#EDB158;}
	.st28{fill:#252D3A;}
</style>
<path class="st0" d="M2334.9939,1603.9679c52.4578-122.6252,81.5129-257.6478,81.5129-399.4609
	C2416.5068,643.1057,1961.4012,188,1400,188S383.4931,643.1057,383.4931,1204.507c0,141.8131,29.0551,276.8357,81.5129,399.4609
	H2334.9939z"/>
<ellipse class="st1" cx="1400" cy="1604.4441" rx="1216.9517" ry="98.5559"/>
<g>
	<g>
		<path class="st2" d="M439.8828,1079.374l4.1909-15.5662c5.4064-20.0808,23.6149-34.0354,44.4107-34.0354h36.3286
			c20.4225,0,36.9783,16.5558,36.9783,36.9783v0.0001c0,4.2948,3.4817,7.7765,7.7766,7.7765h13.6487
			c8.1515,0,14.7596,6.608,14.7596,14.7595v0.0001c0,8.1515-6.6081,14.7595-14.7596,14.7595h-21.4252h-15.2357h-87.7646
			C445.906,1104.0465,436.533,1091.8162,439.8828,1079.374z"/>
		<path class="st3" d="M439.8828,1079.374l4.1909-15.5663c5.4065-20.0808,23.6149-34.0353,44.4108-34.0353h29.5192
			c-20.7959,0-39.0043,13.9545-44.4108,34.0353l-4.1909,15.5663c-3.3498,12.4421,6.0232,24.6725,18.9084,24.6725h-29.5192
			C445.9059,1104.0465,436.533,1091.8162,439.8828,1079.374z"/>
	</g>
	<g>
		<g>
			<g>
				<path class="st4" d="M1199.0117,1557.1626c-60.6039,0-108.0769-67.4863-108.0769-153.6393
					c0-86.1531,47.473-153.6394,108.0769-153.6394s108.0769,67.4863,108.0769,153.6394
					C1307.0886,1489.6763,1259.6156,1557.1626,1199.0117,1557.1626z"/>
			</g>
			<rect x="1195.1671" y="1249.7379" class="st4" width="96.543" height="307.5707"/>
			<g>
				<path class="st5" d="M1292.1373,1557.1626c-60.6039,0-108.0769-67.4863-108.0769-153.6393
					c0-86.1531,47.473-153.6394,108.0769-153.6394s108.0769,67.4863,108.0769,153.6394
					C1400.2142,1489.6763,1352.7412,1557.1626,1292.1373,1557.1626z"/>
			</g>
			<g>
				<ellipse class="st5" cx="1292.1373" cy="1403.5233" rx="76.4655" ry="122.0278"/>
			</g>
			<g>
				<ellipse class="st5" cx="1292.1373" cy="1403.5233" rx="30.3299" ry="48.4021"/>
			</g>
		</g>
	</g>
	<g>
		<g>
			<g>
				<path class="st4" d="M464.4314,1557.1626c-60.6039,0-108.0769-67.4863-108.0769-153.6393
					c0-86.1531,47.4731-153.6394,108.0769-153.6394s108.0769,67.4863,108.0769,153.6394
					C572.5084,1489.6763,525.0353,1557.1626,464.4314,1557.1626z"/>
			</g>
			<rect x="460.5868" y="1249.7379" class="st4" width="96.543" height="307.5707"/>
			<g>
				<path class="st5" d="M557.557,1557.1626c-60.6039,0-108.0769-67.4863-108.0769-153.6393
					c0-86.1531,47.4731-153.6394,108.0769-153.6394s108.0769,67.4863,108.0769,153.6394
					C665.6339,1489.6763,618.1609,1557.1626,557.557,1557.1626z"/>
			</g>
			<g>
				<ellipse class="st5" cx="557.557" cy="1403.5233" rx="76.4655" ry="122.0278"/>
			</g>
		</g>
	</g>
	<path class="st4" d="M1882.2172,1414.4739h-285.1052v-96.3513h285.1052c26.6067,0,48.1757,21.569,48.1757,48.1757v0.0001
		C1930.3928,1392.9049,1908.8239,1414.4739,1882.2172,1414.4739z"/>
	<rect x="1593.303" y="1178.3206" class="st4" width="263.7681" height="207.5864"/>
	<g>
		<path class="st4" d="M1639.8949,1557.1626c-60.6039,0-108.077-67.4863-108.077-153.6393
			c0-86.1531,47.4731-153.6394,108.077-153.6394c60.6038,0,108.0769,67.4863,108.0769,153.6394
			C1747.9718,1489.6763,1700.4987,1557.1626,1639.8949,1557.1626z"/>
		<rect x="1636.0502" y="1249.7379" class="st4" width="96.543" height="307.5707"/>
		<path class="st6" d="M1733.0204,1557.1626c-60.6039,0-108.0769-67.4863-108.0769-153.6393
			c0-86.1531,47.473-153.6394,108.0769-153.6394s108.0769,67.4863,108.0769,153.6394
			C1841.0973,1489.6763,1793.6243,1557.1626,1733.0204,1557.1626z"/>
		<ellipse class="st7" cx="1733.0204" cy="1403.5233" rx="76.4655" ry="122.0278"/>
		<ellipse class="st6" cx="1733.0204" cy="1403.5233" rx="30.3299" ry="48.4021"/>
	</g>
	<rect x="993.3972" y="1201.1741" class="st4" width="313.2841" height="192.3507"/>
	<g>
		<path class="st4" d="M1049.1014,1557.1626c-60.6039,0-108.0769-67.4863-108.0769-153.6393
			c0-86.1531,47.473-153.6394,108.0769-153.6394s108.0769,67.4863,108.0769,153.6394
			C1157.1783,1489.6763,1109.7053,1557.1626,1049.1014,1557.1626z"/>
		<rect x="1045.2568" y="1249.7379" class="st4" width="96.543" height="307.5707"/>
		<path class="st6" d="M1142.2271,1557.1626c-60.6039,0-108.0769-67.4863-108.0769-153.6393
			c0-86.1531,47.473-153.6394,108.0769-153.6394s108.0769,67.4863,108.0769,153.6394
			C1250.304,1489.6763,1202.8309,1557.1626,1142.2271,1557.1626z"/>
		<ellipse class="st7" cx="1142.2271" cy="1403.5233" rx="76.4655" ry="122.0278"/>
	</g>
	<ellipse class="st6" cx="1142.2271" cy="1403.5233" rx="30.3299" ry="48.4021"/>
	<path class="st8" d="M1700.3033,886.4631c-40.486-38.2403-94.0846-59.5159-149.775-59.5159H1393.147
		c-108.4122,0-208.0972,59.4383-259.6407,154.8138l-19.964,36.9413c-11.4436,21.175-26.6613,40.0732-44.9094,55.7684
		c-29.1888,25.1053-76.7193,65.9679-118.6394,101.9244c-54.653,46.8782-86.0996,115.2919-86.0996,187.2953v29.8344h154.2786
		c1.6665-41.1798,13.603-79.376,34.0498-108.4418c23.3102-33.1375,55.2745-51.3871,90.0049-51.3871
		c34.7305,0,66.6948,18.2496,90.005,51.3871c20.4467,29.0658,32.3833,67.262,34.0498,108.4418h342.6835
		c1.6665-41.1798,13.6031-79.376,34.0498-108.4427c23.3102-33.1365,55.275-51.3861,90.0055-51.3861
		c34.7303,0,66.6942,18.2496,90.0044,51.3871c19.2264,27.3311,30.931,62.7345,33.6458,101.1008
		c18.3997-10.123,30.8717-29.6893,30.8717-52.1735v-194.9337c0-29.0409-10.2753-57.1376-29.0077-79.3292
		C1820.1077,1014.2242,1751.2506,934.5844,1700.3033,886.4631z"/>
	<path class="st9" d="M949.9934,1176.3951c41.9201-35.9565,89.4506-76.8192,118.6394-101.9244
		c18.2482-15.6952,33.4658-34.5934,44.9093-55.7684l19.9642-36.9413c51.5435-95.3755,151.2284-154.8138,259.6406-154.8138H979.1896
		H863.8938h-42.0855c-108.4125,0-208.0976,59.4385-259.641,154.8142l-19.961,36.9355
		c-11.4454,21.1785-26.6655,40.08-44.9167,55.7776c-29.1892,25.1055-76.717,65.9658-118.635,101.9205
		c-54.6529,46.8782-86.0996,115.2919-86.0996,187.2953v29.8344h571.3388v-29.8344
		C863.8938,1291.687,895.3405,1223.2733,949.9934,1176.3951z"/>
	<path class="st4" d="M906.7442,1445.8976H303.0295c-23.6656,0-42.8504-19.1848-42.8504-42.8503v-0.0001
		c0-23.6656,19.1848-42.8503,42.8504-42.8503h603.7147c23.6656,0,42.8504,19.1847,42.8504,42.8503v0.0001
		C949.5946,1426.7128,930.4099,1445.8976,906.7442,1445.8976z"/>
	<path class="st4" d="M1739.7217,925.9792h-21.9777c-14.6825,0-28.6907-5.5981-39.4033-15.7262l-0.2687-0.2534
		c-34.5984-32.6795-79.8936-50.6766-127.5432-50.6766H1393.147c-96.6379,0-185.2126,52.8135-231.1583,137.8308l-20.4534,37.842
		c-8.524,15.6123-8.1931,34.0673,0.8853,49.3672c9.0819,15.3064,25.1295,24.4446,42.9266,24.4446h563.9757
		c19.8379,0,37.2523-11.2212,45.4476-29.2838c5.2289-11.5236,5.8929-24.0365,2.2942-35.4679h48.1586
		C1816.3168,1010.1426,1776.71,964.755,1739.7217,925.9792z"/>
	<path class="st10" d="M1777.7689,1019.2979h46.1837c-18.7048-21.5949-39.8538-45.5346-61.0499-68.5607h-45.1589
		c-21.0081,0-41.1854-8.0985-56.4512-22.5309c-0.0735-0.0695-0.147-0.1389-0.2203-0.2082
		c-29.9832-28.3201-69.2423-43.9171-110.5435-43.9171H1393.147c-87.4249,0-167.812,47.9318-209.3774,124.8437l-19.9639,36.9409
		c-0.1794,0.332-0.3596,0.6636-0.5404,0.9948c-9.1476,16.7542,2.993,37.1893,22.0818,37.1893h563.9757
		c21.6211,0,33.157-25.4633,18.918-41.7335c-0.1979-0.2261-0.3959-0.4523-0.5941-0.6787
		C1760.0233,1032.931,1766.1968,1019.2979,1777.7689,1019.2979z"/>
	<polygon class="st4" points="1484.7485,1089.7631 1450.4683,1089.7631 1549.1553,872.6544 1583.4355,872.6544 	"/>
	<g>
		<ellipse class="st11" cx="1417.6163" cy="1153.5625" rx="32.3759" ry="22.8536"/>
		<path class="st9" d="M1455.2294,1141.1835h-75.2262c-6.8368,0-12.379,5.5424-12.379,12.379c0,6.8368,5.5422,12.379,12.379,12.379
			h75.2262c6.8368,0,12.379-5.5422,12.379-12.379C1467.6084,1146.7258,1462.0662,1141.1835,1455.2294,1141.1835z"/>
	</g>
	<g>
		<path class="st2" d="M1307.6566,1079.374l-4.1909-15.5662c-5.4065-20.0808-23.615-34.0354-44.4108-34.0354h-36.3286
			c-20.4226,0-36.9784,16.5558-36.9784,36.9783v0.0001c0,4.2948-3.4817,7.7765-7.7765,7.7765h-13.6487
			c-8.1515,0-14.7596,6.608-14.7596,14.7595v0.0001c0,8.1515,6.6082,14.7595,14.7596,14.7595h21.4252h15.2357h87.7645
			C1301.6334,1104.0465,1311.0065,1091.8162,1307.6566,1079.374z"/>
		<path class="st12" d="M1307.6566,1079.374l-4.1909-15.5663c-5.4065-20.0808-23.6149-34.0353-44.4108-34.0353h-29.5192
			c20.7958,0,39.0043,13.9545,44.4108,34.0353l4.1909,15.5663c3.3497,12.4421-6.0232,24.6725-18.9084,24.6725h29.5192
			C1301.6334,1104.0465,1311.0063,1091.8162,1307.6566,1079.374z"/>
		<path class="st3" d="M1224.3134,1056.4349h-16.188c-2.8925,0-5.2373-2.3448-5.2373-5.2373l0,0
			c0-2.8925,2.3448-5.2372,5.2373-5.2372h16.188c2.8925,0,5.2372,2.3447,5.2372,5.2372l0,0
			C1229.5505,1054.0901,1227.2058,1056.4349,1224.3134,1056.4349z"/>
	</g>
	<path class="st4" d="M850.3752,826.9472c-108.4123,0-208.0973,59.4384-259.6408,154.8138l-19.9612,36.9359
		c-11.4454,21.1785-26.6655,40.08-44.9166,55.7776c-0.111,0.0955-0.2222,0.191-0.3337,0.287
		c-13.6167,11.7117-5.3379,34.046,12.6226,34.046h454.807c4.6315,0,9.1105-1.6608,12.6228-4.6799
		c12.9472-11.1295,24.7432-21.2732,34.4907-29.657c18.2482-15.6952,33.4658-34.5934,44.9093-55.7684l19.9641-36.9413
		c51.5436-95.3755,151.2285-154.8138,259.6407-154.8138H892.4607H850.3752z"/>
	<path class="st10" d="M538.1456,1089.7631c-0.0869,0-0.153-0.0046-0.1995-0.0093c-0.0721-0.1089-0.1371-0.2845-0.1525-0.4138
		c0.0325-0.0344,0.08-0.0809,0.1478-0.1395l0.3794-0.3273c20.0383-17.2341,36.6093-37.8121,49.2064-61.1215l19.9615-36.9361
		c48.2764-89.3307,141.345-144.8238,242.8864-144.8238h364.149c-52.5592,28.5637-96.8124,72.0776-126.3395,126.7147
		l-19.9639,36.9417c-10.3778,19.2018-24.0289,36.1542-40.5735,50.3837c-9.7464,8.3832-21.541,18.5258-34.4863,29.6531
		c-0.0585,0.0511-0.1325,0.0781-0.2087,0.0781H538.1456z"/>
	<g>
		<path class="st13" d="M858.7961,845.9918l-308.6738,231.9313c-3.7898,3.783-7.7197,7.4395-11.8014,10.9501l-0.3794,0.3273
			c-0.0679,0.0586-0.1153,0.1051-0.1478,0.1395c0.0153,0.1293,0.0804,0.3049,0.1525,0.4138
			c0.0465,0.0046,0.1125,0.0093,0.1995,0.0093h10.5026l324.4315-243.7712H858.7961z"/>
		<path class="st13" d="M818.2129,847.8657c-12.9547,1.5121-25.6988,3.9288-38.1527,7.2025L613.5562,980.176
			c-2.0912,3.4926-4.1196,7.0355-6.0674,10.6396l-13.9983,25.902L818.2129,847.8657z"/>
	</g>
	<g>
		<g>
			<rect x="820.0911" y="1304.0151" class="st4" width="19.9969" height="81.8919"/>
			<path class="st4" d="M744.3887,1343.0565c-21.2648,0-38.5654-17.3-38.5654-38.5653s17.3006-38.5654,38.5654-38.5654h57.1339
				c21.2648,0,38.5654,17.3002,38.5654,38.5654s-17.3006,38.5653-38.5654,38.5653H744.3887z"/>
			<path class="st7" d="M801.5226,1280.2094h-57.1339c-13.4105,0-24.2819,10.8713-24.2819,24.2819l0,0
				c0,13.4105,10.8713,24.2819,24.2819,24.2819h57.1339c13.4105,0,24.2819-10.8713,24.2819-24.2819l0,0
				C825.8045,1291.0807,814.9332,1280.2094,801.5226,1280.2094z"/>
			<path class="st14" d="M801.5226,1280.2094h-7.6179c-13.4105,0-24.2819,10.8713-24.2819,24.2819l0,0
				c0,13.4105,10.8714,24.2819,24.2819,24.2819h7.6179c13.4105,0,24.2819-10.8713,24.2819-24.2819l0,0
				C825.8045,1291.0807,814.9332,1280.2094,801.5226,1280.2094z"/>
		</g>
		<g>
			
				<rect x="304.934" y="1304.0151" transform="matrix(-1 4.502697e-11 -4.502697e-11 -1 629.8649 2689.9221)" class="st4" width="19.9969" height="81.8919"/>
			<path class="st4" d="M400.6332,1343.0565c21.2648,0,38.5654-17.3,38.5654-38.5653s-17.3006-38.5654-38.5654-38.5654h-57.1339
				c-21.2648,0-38.5654,17.3002-38.5654,38.5654s17.3006,38.5653,38.5654,38.5653H400.6332z"/>
			<path class="st7" d="M343.4994,1280.2094h57.1339c13.4105,0,24.2819,10.8713,24.2819,24.2819l0,0
				c0,13.4105-10.8714,24.2819-24.2819,24.2819h-57.1339c-13.4105,0-24.2819-10.8713-24.2819-24.2819l0,0
				C319.2175,1291.0807,330.0889,1280.2094,343.4994,1280.2094z"/>
			<path class="st14" d="M343.4994,1280.2094h7.6179c13.4105,0,24.2819,10.8713,24.2819,24.2819l0,0
				c0,13.4105-10.8714,24.2819-24.2819,24.2819h-7.6179c-13.4105,0-24.2819-10.8713-24.2819-24.2819l0,0
				C319.2175,1291.0807,330.0889,1280.2094,343.4994,1280.2094z"/>
		</g>
	</g>
	<ellipse class="st15" cx="574.8916" cy="1243.0723" rx="43.3265" ry="22.8536"/>
	<ellipse class="st8" cx="579.1766" cy="1204.507" rx="47.6116" ry="15.7118"/>
	<ellipse class="st16" cx="574.8916" cy="1204.507" rx="43.3265" ry="15.7118"/>
	<path class="st8" d="M574.8916,1214.3268c-2.1365,0-3.8685,1.7319-3.8685,3.8684v3.0948c0,2.1362,1.7319,3.8684,3.8685,3.8684
		c2.1365,0,3.8684-1.7322,3.8684-3.8684v-3.0948C578.76,1216.0587,577.0281,1214.3268,574.8916,1214.3268z"/>
	<path class="st17" d="M626.7882,1360.1968H494.428v-14.2836c0-14.1993,11.5109-25.7102,25.7103-25.7102h80.9396
		c14.1994,0,25.7103,11.5109,25.7103,25.7102V1360.1968z"/>
	<path class="st15" d="M534.4218,1320.203h-14.2834c-14.1994,0-25.7103,11.511-25.7103,25.7102v14.2836h14.2835v-14.2836
		C508.7115,1331.714,520.2224,1320.203,534.4218,1320.203z"/>
	<path class="st16" d="M614.5452,1141.1835H491.5713c-4.2072,0-7.6178-3.4105-7.6178-7.6178l0,0
		c0-4.2073,3.4106-7.6178,7.6178-7.6178h122.9739c4.2072,0,7.6179,3.4105,7.6179,7.6178l0,0
		C622.1631,1137.7729,618.7524,1141.1835,614.5452,1141.1835z"/>
	<path class="st16" d="M673.7429,1141.1835h-28.7029c-4.2072,0-7.6179-3.4105-7.6179-7.6178l0,0
		c0-4.2073,3.4106-7.6178,7.6179-7.6178h28.7029c4.2073,0,7.6179,3.4105,7.6179,7.6178l0,0
		C681.3607,1137.7729,677.9501,1141.1835,673.7429,1141.1835z"/>
</g>
<g>
	<path class="st4" d="M2321.76,1635.0447h-17.1404v-199.7295c0-14.834-12.0684-26.9015-26.9023-26.9015h-24.5181v-17.1401h24.5181
		c24.2856,0,44.0427,19.7568,44.0427,44.0416V1635.0447z"/>
	<path class="st6" d="M2248.1636,1354.6124h-28.7686v90.938h28.7686c13.4458,0,24.3457-10.9,24.3457-24.3457v-42.2465
		C2272.5093,1365.5125,2261.6094,1354.6124,2248.1636,1354.6124z"/>
	<path class="st18" d="M2079.0742,614.7382h129.5129c-13.4453,0-26.1958,5.9419-34.8611,16.226l-50.6492,60.162
		c-37.5181,44.574-58.0957,100.9651-58.0957,159.2322v738.0268h-129.8273V850.3583c0-58.2671,20.5778-114.6582,58.0957-159.2322
		l50.6587-60.162c4.3326-5.142,9.6842-9.1985,15.6356-11.9695c5.9514-2.7709,12.5029-4.2564,19.2161-4.2564
		c0.1047,0,0.2095,0.0095,0.3142,0.0095V614.7382z"/>
	<path class="st18" d="M2213.3484,614.7382v0.2475c-1.5618-0.1619-3.1519-0.2475-4.7612-0.2475H2213.3484z"/>
	<path class="st19" d="M2254.1514,660.3024v928.0827h-189.1702V850.3583c0-58.2671,20.5776-114.6582,58.0957-159.2322
		l50.6492-60.162c8.6653-10.2841,21.4158-16.226,34.8611-16.226c1.6094,0,3.1995,0.0856,4.7612,0.2475
		c10.6841,1.1046,20.2729,5.9039,27.4624,13.0932C2249.0476,636.3253,2254.1514,647.714,2254.1514,660.3024z"/>
	<path class="st4" d="M2184.1626,1586.4807h-259.9594c-13.4104,0-24.2819,10.8713-24.2819,24.2819l0,0
		c0,13.4105,10.8715,24.282,24.2819,24.282h259.9594c13.4104,0,24.2817-10.8715,24.2817-24.282l0,0
		C2208.4443,1597.3521,2197.573,1586.4807,2184.1626,1586.4807z"/>
	<path class="st20" d="M2329.854,1586.4807h-294.2396c-13.4105,0-24.2819,10.8713-24.2819,24.2819l0,0
		c0,13.4105,10.8713,24.282,24.2819,24.282h294.2396c13.4104,0,24.2817-10.8715,24.2817-24.282l0,0
		C2354.1357,1597.3521,2343.2644,1586.4807,2329.854,1586.4807z"/>
	<path class="st7" d="M2095.2617,630.9357h-16.1877c-0.1841,0-0.3691-0.0032-0.5562-0.0089
		c-4.166,0.0353-8.3589,0.982-12.1409,2.7428c-3.9094,1.8207-7.3044,4.4194-10.0859,7.7211l-50.657,60.1598
		c-35.0104,41.5959-54.2921,94.4438-54.2921,148.808v194.9374c0,11.7452,9.5214,21.2665,21.2665,21.2665h54.9182
		c11.7452,0,21.2666-9.5212,21.2666-21.2665V850.3585c0-61.981,21.9832-122.2329,61.8997-169.658l41.9045-49.7745h-57.3357V630.9357
		z"/>
	<path class="st6" d="M2010.6832,876.1161h-22.5073c-8.3905,0-15.1924,6.8019-15.1924,15.1924v68.6472
		c0,8.3905,6.8019,15.1924,15.1924,15.1924h22.5073c8.3905,0,15.1924-6.8019,15.1924-15.1924v-68.6472
		C2025.8756,882.9181,2019.0737,876.1161,2010.6832,876.1161z"/>
	<rect x="1960.8643" y="997.0496" class="st9" width="43.8026" height="10.4745"/>
	<rect x="1960.8643" y="1020.8553" class="st14" width="21.9013" height="10.4745"/>
	<g>
		<path class="st7" d="M1993.2401,1203.2079c-23.365,0-42.3743-19.0094-42.3743-42.3744c0-14.2035,7.0626-27.3887,18.8931-35.2716
			c3.2834-2.1871,7.7163-1.2981,9.9036,1.9825c2.1871,3.2826,1.2991,7.7164-1.9827,9.9037
			c-7.8466,5.2279-12.5305,13.9701-12.5305,23.3854c0,15.4896,12.6012,28.0908,28.0908,28.0908
			c15.4895,0,28.0908-12.6012,28.0908-28.0908c0-9.4153-4.684-18.1575-12.5306-23.3854c-3.2816-2.1873-4.1697-6.6211-1.9825-9.9037
			c2.1863-3.2816,6.6182-4.1687,9.9036-1.9825c11.8304,7.8829,18.8931,21.0681,18.8931,35.2716
			C2035.6144,1184.1985,2016.6051,1203.2079,1993.2401,1203.2079z"/>
		<path class="st7" d="M1993.2401,1164.6425c-3.9447,0-7.1417-3.197-7.1417-7.1417v-47.6116c0-3.9447,3.197-7.1417,7.1417-7.1417
			s7.1417,3.197,7.1417,7.1417v47.6116C2000.3818,1161.4454,1997.1848,1164.6425,1993.2401,1164.6425z"/>
	</g>
	<g>
		<path class="st21" d="M2218.9189,940.8679h-86.6531c-4.2073,0-7.6179-3.4106-7.6179-7.6178V933.25
			c0-4.2072,3.4106-7.6178,7.6179-7.6178h86.6531c4.2073,0,7.6179,3.4106,7.6179,7.6178v0.0001
			C2226.5369,937.4573,2223.1262,940.8679,2218.9189,940.8679z"/>
		<path class="st21" d="M2218.9189,975.1482h-86.6531c-4.2073,0-7.6179-3.4106-7.6179-7.6178v-0.0001
			c0-4.2072,3.4106-7.6178,7.6179-7.6178h86.6531c4.2073,0,7.6179,3.4106,7.6179,7.6178v0.0001
			C2226.5369,971.7376,2223.1262,975.1482,2218.9189,975.1482z"/>
		<path class="st21" d="M2218.9189,1009.4285h-86.6531c-4.2073,0-7.6179-3.4106-7.6179-7.6179l0,0
			c0-4.2072,3.4106-7.6179,7.6179-7.6179h86.6531c4.2073,0,7.6179,3.4106,7.6179,7.6179l0,0
			C2226.5369,1006.0179,2223.1262,1009.4285,2218.9189,1009.4285z"/>
	</g>
	<g>
		<circle class="st18" cx="1976.4401" cy="855.6432" r="6.1895"/>
		<circle class="st14" cx="1999.4296" cy="855.6432" r="6.1895"/>
		<circle class="st18" cx="2022.4192" cy="855.6432" r="6.1895"/>
	</g>
</g>
<g>
	<path class="st20" d="M1652.2789,1586.8334c-24.358,0-45.5862-17.9762-48.9934-42.7853l-80.9396-589.4312
		c-3.7206-27.0926,15.2263-52.0714,42.3193-55.7921c27.095-3.715,52.0715,15.2269,55.7921,42.3195l80.9396,589.4312
		c3.7206,27.093-15.2263,52.0714-42.3193,55.792C1656.7937,1586.6809,1654.521,1586.8334,1652.2789,1586.8334z"/>
	<path class="st4" d="M1421.9636,1586.8334c-2.2439,0-4.5128-0.1525-6.7986-0.4659c-27.0925-3.7206-46.04-28.699-42.3195-55.792
		l80.9397-589.4312c3.7206-27.0926,28.7-46.0358,55.792-42.3195c27.093,3.7206,46.04,28.6995,42.3195,55.7921l-80.9397,589.4312
		C1467.5508,1568.8553,1446.3199,1586.8334,1421.9636,1586.8334z"/>
	<path class="st22" d="M1648.1036,790.7684c-16.6687,0-32.9998-8.1688-42.7611-23.1865l-61.895-95.2231
		c-15.3342-23.5901-8.6407-55.1443,14.9493-70.4781c23.5891-15.3324,55.1448-8.6417,70.478,14.9502l61.8951,95.2231
		c15.3342,23.59,8.6407,55.1443-14.9493,70.4781C1667.2478,788.1042,1657.6195,790.7684,1648.1036,790.7684z"/>
	<path class="st23" d="M1688.0835,855.522c-14.1868,0-27.9003-7.6606-34.9824-21.0802l-36.1848-68.5607
		c-10.1873-19.3017-2.7981-43.207,16.504-53.3942c19.2986-10.1858,43.2067-2.799,53.3938,16.5037l36.1848,68.5607
		c10.1873,19.3017,2.7981,43.207-16.5042,53.3942C1700.6132,854.05,1694.3027,855.522,1688.0835,855.522z"/>
	<path class="st22" d="M1590.4463,601.2684h-68.9978v-26.3815c0-5.0435,4.0886-9.1321,9.1321-9.1321h50.7336
		c5.0435,0,9.1321,4.0886,9.1321,9.1321V601.2684z"/>
	<path class="st23" d="M1522.3618,614.5996h-0.0001c-19.7213,0-35.7086-15.9873-35.7086-35.7086v-94.7471h71.4174v94.7471
		C1558.0704,598.6123,1542.0831,614.5996,1522.3618,614.5996z"/>
	<ellipse class="st20" cx="1603.3014" cy="410.8221" rx="45.231" ry="54.2772"/>
	<ellipse class="st4" cx="1498.5559" cy="409.8699" rx="66.1801" ry="87.6053"/>
	<path class="st23" d="M1561.8794,560.3224h-0.0001c-41.5463,0-75.2262-33.6799-75.2262-75.2262V350.8315h150.4525v134.2647
		C1637.1056,526.6425,1603.4257,560.3224,1561.8794,560.3224z"/>
	<path class="st24" d="M1592.8269,520.3287h-0.0001c-11.8328,0-21.4252-9.5924-21.4252-21.4252v-8.7288h42.8505v8.7288
		C1614.2521,510.7363,1604.6597,520.3287,1592.8269,520.3287z"/>
	<ellipse class="st4" cx="1495.6992" cy="407.9654" rx="45.231" ry="54.2772"/>
	<circle class="st23" cx="1481.8918" cy="457.4814" r="26.6625"/>
	<path class="st4" d="M1525.241,392.7297c35.2657,17.1402,139.0476,43.8026,164.2373-39.0415
		c-8.0607,2.8567-21.1594,0.9522-25.1897,0c16.1215-8.5701,32.2429-39.9937,13.0986-73.3218
		c-2.0151,8.5701-17.129,23.8058-28.2125,25.7103c5.038-5.7134,6.0455-21.9013-2.0151-30.4714
		c0,10.4745-54.4099,23.8058-92.6985,13.3312c-38.2885-10.4745-138.7756,5.3136-98.1041,91.6904
		C1516.5405,416.2593,1525.241,392.7297,1525.241,392.7297z"/>
	<path class="st25" d="M1623.7744,666.0201v264.7203c0,23.1393-9.3795,44.0884-24.5486,59.2478
		c-15.1594,15.169-36.1085,24.5485-59.2478,24.5485c-46.2784,0-83.7964-37.5179-83.7964-83.7963V802.7605
		c0-12.417-1.3427-24.7771-3.9708-36.8419c-2.6377-12.0647-6.5608-23.8533-11.741-35.1468
		c-10.3507-22.5869-15.7118-47.145-15.7118-71.9888v-12.2837c0-37.0798,30.0524-67.1323,67.1323-67.1323h45.231
		C1584.9805,579.3671,1623.7744,618.1609,1623.7744,666.0201z"/>
	<path class="st25" d="M1535.6539,601.2684h-68.9977v-26.3815c0-5.0435,4.0885-9.1321,9.132-9.1321h50.7336
		c5.0436,0,9.1321,4.0886,9.1321,9.1321V601.2684z"/>
	<path class="st23" d="M1688.0193,855.5165c-8.2028,0-16.4753-2.5443-23.5621-7.8178
		c-17.5084-13.0295-21.1388-37.7861-8.1097-55.2945l91.4142-122.8378c13.0299-17.5084,37.7852-21.1397,55.2954-8.1098
		c17.5084,13.0295,21.1388,37.7861,8.1097,55.2946l-91.4142,122.8378C1711.9962,850.0114,1700.084,855.5165,1688.0193,855.5165z"/>
	<path class="st4" d="M1623.7744,898.3646v32.3759c0,23.1393-9.3795,44.0884-24.5486,59.2478
		c-15.1594,15.169-36.1085,24.5485-59.2478,24.5485c-46.2784,0-83.7964-37.5179-83.7964-83.7963v-32.3759
		C1514.1793,921.3913,1570.0115,921.0446,1623.7744,898.3646z"/>
	<rect x="1363.8152" y="1556.3563" class="st26" width="112.3633" height="61.895"/>
	<path class="st26" d="M1380.6379,1526.8372h47.2942c9.2909,0,16.8228,7.5319,16.8228,16.8228v74.5916h-80.9397v-74.5916
		C1363.8152,1534.369,1371.347,1526.8372,1380.6379,1526.8372z"/>
	<rect x="1461.895" y="1541.1207" class="st26" width="14.2835" height="77.1307"/>
	<path class="st9" d="M1407.2775,1560.5123h-25.0294c-25.9573,0-46.9998,21.0426-46.9998,46.9998v27.5325h119.0289v-27.5325
		C1454.2772,1581.5549,1433.2347,1560.5123,1407.2775,1560.5123z"/>
	<path class="st20" d="M1474.5121,1611.5858h-115.696c-4.0758,0-7.3799,3.304-7.3799,7.3798v11.903
		c0,4.0758,3.3041,7.3798,7.3799,7.3798h115.696c4.0758,0,7.3798-3.304,7.3798-7.3798v-11.903
		C1481.8918,1614.8898,1478.5879,1611.5858,1474.5121,1611.5858z"/>
	<path class="st4" d="M1451.6586,1611.5858h-115.6962c-4.0757,0-7.3798,3.304-7.3798,7.3798v11.903
		c0,4.0758,3.3041,7.3798,7.3798,7.3798h115.6962c4.0757,0,7.3798-3.304,7.3798-7.3798v-11.903
		C1459.0383,1614.8898,1455.7343,1611.5858,1451.6586,1611.5858z"/>
	
		<rect x="1599.0164" y="1556.3563" transform="matrix(-1 4.495503e-11 -4.495503e-11 -1 3310.396 3174.6079)" class="st26" width="112.3633" height="61.895"/>
	<path class="st26" d="M1694.5569,1526.8372h-24.4406c-9.291,0-16.8228,7.5319-16.8228,16.8228v74.5916h58.0861v-74.5916
		C1711.3796,1534.369,1703.8478,1526.8372,1694.5569,1526.8372z"/>
	<rect x="1616.1565" y="1560.1653" class="st26" width="108.5544" height="58.0861"/>
	
		<rect x="1599.0164" y="1541.1207" transform="matrix(-1 2.101240e-11 -2.101240e-11 -1 3228.5042 3159.3721)" class="st26" width="30.4714" height="77.1307"/>
	<path class="st9" d="M1726.0035,1560.5123h5.0326c25.9572,0,46.9996,21.0426,46.9996,46.9998v27.5325h-99.032v-27.5325
		C1679.0038,1581.5549,1700.0463,1560.5123,1726.0035,1560.5123z"/>
	<path class="st20" d="M1600.6827,1611.5858h115.6962c4.0757,0,7.3798,3.304,7.3798,7.3798v11.903
		c0,4.0758-3.3041,7.3798-7.3798,7.3798h-115.6962c-4.0758,0-7.3798-3.304-7.3798-7.3798v-11.903
		C1593.303,1614.8898,1596.6069,1611.5858,1600.6827,1611.5858z"/>
	<path class="st4" d="M1679.7179,1611.5858h94.7471c4.0758,0,7.3798,3.304,7.3798,7.3798v11.903
		c0,4.0758-3.304,7.3798-7.3798,7.3798h-94.7471c-4.0757,0-7.3798-3.304-7.3798-7.3798v-11.903
		C1672.3381,1614.8898,1675.6422,1611.5858,1679.7179,1611.5858z"/>
</g>
<g>
	<path class="st27" d="M1816.3463,548.1479v41.8002c0,14.5018-7.8027,27.1868-19.4398,34.0756
		c-5.8966,3.4888-12.7852,5.4952-20.131,5.4952s-14.2344-2.0065-20.131-5.4952c-11.6371-6.8887-19.4398-19.5737-19.4398-34.0756
		v-41.8002H1816.3463z"/>
	<path class="st14" d="M1816.3463,548.1479v35.3685c-10.9906,1.6274-19.4398,11.1021-19.4398,22.5609v113.8026
		c0,7.067-5.7184,12.7964-12.7852,12.7964h-14.6917c-7.0668,0-12.7852-5.7294-12.7852-12.7964V606.0773
		c0-11.4588-8.4492-20.9335-19.4398-22.5609v-35.3685H1816.3463z"/>
	<g>
		<path class="st4" d="M1749.8375,510.8064h-5.2015c-2.5652,0-4.6447,2.0794-4.6447,4.6444v24.337h14.4907v-24.337
			C1754.4821,512.8858,1752.4027,510.8064,1749.8375,510.8064z"/>
		<path class="st4" d="M1808.9152,510.8064h-5.2017c-2.5652,0-4.6445,2.0794-4.6445,4.6444v24.337h14.4907v-24.337
			C1813.5597,512.8858,1811.4802,510.8064,1808.9152,510.8064z"/>
	</g>
	<path class="st28" d="M1778.819,510.8064h-5.2015c-2.5652,0-4.6447,2.0794-4.6447,4.6444v24.337h14.4907v-24.337
		C1783.4635,512.8858,1781.3842,510.8064,1778.819,510.8064z"/>
	<rect x="1726.6154" y="535.3292" class="st27" width="100.3204" height="21.1787"/>
	<path class="st27" d="M1791.8236,572.1133h-30.0962c-2.4624,0-4.4586-1.9962-4.4586-4.4587l0,0
		c0-2.4625,1.9962-4.4587,4.4586-4.4587h30.0962c2.4624,0,4.4586,1.9962,4.4586,4.4587l0,0
		C1796.2822,570.1171,1794.286,572.1133,1791.8236,572.1133z"/>
</g>
<circle class="st23" cx="1781.3687" cy="661.735" r="58.5622"/>
<path class="st14" d="M1768.0374,691.7303v468.4978c0,43.8427-35.6687,79.5114-79.5112,79.5114
	c-43.8427,0-79.5114-35.6687-79.5114-79.5114V951.1752c0-21.8027-12.1484-41.3356-31.705-50.976
	c-19.55-9.6376-42.4365-7.3788-59.7269,5.8956c-17.1234,13.1472-36.9771,28.6897-59.01,46.1962
	c-22.1449,17.5958-40.3484,40.3647-52.6415,65.8463c-12.2902,25.4741-18.7865,53.8931-18.7865,82.1839v335.1017
	c0,79.0222-64.2891,143.3108-143.3108,143.3108H617.742c-79.0217,0-143.3108-64.2886-143.3108-143.3108v-141.3486
	c0-19.8407,10.4638-37.2384,27.9904-46.5385c17.528-9.2982,37.8005-8.2102,54.2297,2.9115l22.6865,15.3594
	c10.1241-0.5444,19.2144-2.9287,26.0564-6.5072l-37.5323-25.4102c-22.6666-15.3464-50.6338-16.8463-74.8129-4.0172
	c-24.1796,12.8291-38.6147,36.8301-38.6147,64.2021v141.3486c0,90.0482,73.2595,163.3077,163.3077,163.3077h626.0921
	c90.0481,0,163.3076-73.2595,163.3076-163.3077v-335.1017c0-51.8734,23.2804-100.1219,63.8711-132.3741
	c21.9464-17.4377,41.7122-32.9115,58.7482-45.9917c11.3738-8.7328,25.8447-10.1611,38.7073-3.821
	c12.8677,6.3439,20.5497,18.6949,20.5497,33.0407v209.0529c0,54.8687,44.639,99.5082,99.5082,99.5082
	c54.8685,0,99.5082-44.6395,99.5082-99.5082V691.7303H1768.0374z"/>
<g>
	<path class="st25" d="M1401.9388,783.6276c-8.9615,0-18.0338-2.3638-26.2667-7.3305
		c-24.0918-14.5331-31.8398-45.8452-17.3062-69.9365l55.1466-91.4137c14.5345-24.0908,45.8457-31.8398,69.9369-17.3062
		c24.0913,14.5331,31.8394,45.8452,17.3057,69.9365l-55.1466,91.4137C1436.0416,774.8497,1419.2008,783.6276,1401.9388,783.6276z"/>
	<path class="st23" d="M1351.3986,855.9963c-6.9515,0-13.9886-1.8337-20.3749-5.6864
		c-18.688-11.2733-24.6985-35.5622-13.4247-54.2498l46.1432-76.49c11.2733-18.688,35.5646-24.6981,54.2498-13.4247
		c18.6875,11.2734,24.6985,35.5623,13.4252,54.2498l-46.1437,76.4901C1377.8527,849.187,1364.7888,855.9963,1351.3986,855.9963z"/>
	<path class="st23" d="M1471.8934,976.4475c-10.1136,0-20.2266-3.8582-27.943-11.5746l-120.9333-120.9333
		c-15.4329-15.4324-15.4329-40.4536,0-55.8859c15.4319-15.4329,40.4541-15.4329,55.886,0l120.9333,120.9333
		c15.4329,15.4324,15.4329,40.4536,0,55.8859C1492.12,972.5893,1482.0072,976.4475,1471.8934,976.4475z"/>
	<circle class="st23" cx="1469.989" cy="956.9268" r="58.5622"/>
</g>
</svg>
